<svg width="320" height="72" viewBox="0 0 320 72" fill="none" xmlns="http://www.w3.org/2000/svg">
<path fill-rule="evenodd" clip-rule="evenodd" d="M13.9294 41.1971L10.8148 47.0618V66.7636H0.738281V2.61818H10.8148V30.5673L24.0059 2.61818H34.0825L20.0669 31.2087L34.0825 66.7636H23.7311L13.9294 41.1971ZM48.3074 52.0102C48.3074 54.3316 48.7807 55.9658 49.7273 56.9127C50.6739 57.8596 51.9411 58.3331 53.5289 58.3331C55.1167 58.3331 56.3839 57.8596 57.3305 56.9127C58.2771 55.9658 58.7504 54.3316 58.7504 52.0102V17.3716C58.7504 15.0502 58.2771 13.416 57.3305 12.4691C56.3839 11.5222 55.1167 11.0487 53.5289 11.0487C51.9411 11.0487 50.6739 11.5222 49.7273 12.4691C48.7807 13.416 48.3074 15.0502 48.3074 17.3716V52.0102ZM38.2309 18.0131C38.2309 12.8203 39.5439 8.83419 42.1699 6.05454C44.7959 3.27489 48.5822 1.88509 53.5289 1.88509C58.4756 1.88509 62.2619 3.27489 64.8879 6.05454C67.5139 8.83419 68.8269 12.8203 68.8269 18.0131V51.3687C68.8269 56.5615 67.5139 60.5476 64.8879 63.3273C62.2619 66.1069 58.4756 67.4967 53.5289 67.4967C48.5822 67.4967 44.7959 66.1069 42.1699 63.3273C39.5439 60.5476 38.2309 56.5615 38.2309 51.3687V18.0131ZM85.342 20.304V66.7636H76.2731V2.61818H88.9146L99.2659 41.0138V2.61818H108.243V66.7636H97.8919L85.342 20.304ZM115.231 18.0131C115.231 12.8203 116.468 8.83419 118.941 6.05454C121.415 3.27489 125.125 1.88509 130.071 1.88509C135.018 1.88509 138.728 3.27489 141.201 6.05454C143.675 8.83419 144.911 12.8203 144.911 18.0131V20.0291H135.384V17.3716C135.384 15.0502 134.942 13.416 134.056 12.4691C133.171 11.5222 131.934 11.0487 130.346 11.0487C128.758 11.0487 127.522 11.5222 126.636 12.4691C125.751 13.416 125.308 15.0502 125.308 17.3716C125.308 19.5709 125.796 21.5105 126.774 23.1905C127.751 24.8705 128.972 26.4589 130.438 27.9556C131.903 29.4524 133.476 30.9491 135.155 32.4458C136.835 33.9425 138.407 35.5767 139.873 37.3484C141.339 39.12 142.56 41.136 143.537 43.3964C144.514 45.6567 145.003 48.3142 145.003 51.3687C145.003 56.5615 143.736 60.5476 141.201 63.3273C138.667 66.1069 134.926 67.4967 129.98 67.4967C125.033 67.4967 121.293 66.1069 118.758 63.3273C116.224 60.5476 114.957 56.5615 114.957 51.3687V47.4284H124.483V52.0102C124.483 54.3316 124.957 55.9505 125.903 56.8669C126.85 57.7833 128.117 58.2414 129.705 58.2414C131.293 58.2414 132.56 57.7833 133.507 56.8669C134.453 55.9505 134.926 54.3316 134.926 52.0102C134.926 49.8109 134.438 47.8713 133.461 46.1913C132.484 44.5113 131.262 42.9229 129.797 41.4262C128.331 39.9294 126.758 38.4327 125.079 36.936C123.399 35.4393 121.827 33.8051 120.361 32.0334C118.896 30.2618 117.674 28.2458 116.697 25.9854C115.72 23.7251 115.231 21.0676 115.231 18.0131ZM148.877 2.61818H180.022V11.7818H169.488V66.7636H159.411V11.7818H148.877V2.61818ZM206.522 66.7636C206.4 66.336 206.278 65.9389 206.156 65.5724C206.034 65.2058 205.927 64.7476 205.835 64.1978C205.744 63.648 205.683 62.9455 205.652 62.0902C205.621 61.2349 205.606 60.1658 205.606 58.8829V48.8029C205.606 45.8094 205.087 43.7018 204.049 42.48C203.011 41.2582 201.331 40.6473 199.011 40.6473H195.53V66.7636H185.453V2.61818H200.66C205.912 2.61818 209.713 3.83998 212.064 6.28363C214.416 8.72728 215.591 12.4232 215.591 17.3716V22.4116C215.591 29.0095 213.393 33.3469 208.996 35.424C211.561 36.4625 213.316 38.1578 214.263 40.5098C215.209 42.8618 215.683 45.7178 215.683 49.0778V58.9745C215.683 60.5629 215.744 61.9527 215.866 63.144C215.988 64.3353 216.293 65.5418 216.782 66.7636H206.522ZM195.53 11.7818V31.4836H199.469C201.362 31.4836 202.843 30.9949 203.912 30.0174C204.98 29.04 205.515 27.2684 205.515 24.7025V18.3796C205.515 16.0582 205.102 14.3782 204.278 13.3396C203.453 12.3011 202.156 11.7818 200.385 11.7818H195.53ZM232.931 2.61818V52.1018C232.931 54.4233 233.404 56.0422 234.35 56.9585C235.297 57.8749 236.564 58.3331 238.152 58.3331C239.74 58.3331 241.007 57.8749 241.954 56.9585C242.9 56.0422 243.374 54.4233 243.374 52.1018V2.61818H252.9V51.4604C252.9 56.6531 251.633 60.6393 249.099 63.4189C246.564 66.1986 242.824 67.5884 237.877 67.5884C232.931 67.5884 229.19 66.1986 226.656 63.4189C224.121 60.6393 222.854 56.6531 222.854 51.4604V2.61818H232.931ZM288.339 2.61818H319.484V11.7818H308.95V66.7636H298.873V11.7818H288.339V2.61818Z" fill="white"/>
<path fill-rule="evenodd" clip-rule="evenodd" d="M257.687 35.9535L283.86 3.22618V68.6807L257.687 35.9535Z" fill="#00A4E5"/>
</svg>
